<svg xmlns="http://www.w3.org/2000/svg" xmlns:xlink="http://www.w3.org/1999/xlink" viewBox="0 0 1200 576">
  <g id="laces"  style="isolation: isolate">
    <path d="M361,270s-4.27,1.48-4,5,3.87,14.56,7,16,5.13,4.85,10,5,10.94,0,13-4,3.34-7.26,3-15-.77-13.34,3-16,17.81-8.09,19-8,2.54,7.78,7,9,4.16,3.81,9,3,12.31-6.5,12-9,.49-13.28-1-16,13-7,13-7l7-2s3.69,16.92,7,19,5.63,3.47,10,3,9.1-1.88,10-7-.19-11.27,0-15,0-9,0-9,9.08-6.82,13-7,2-.36,7,2,10.44,6.74,15,4,7.92-7,8-11-3-12-3-12,3.25-4.49,8-5,6.38-2.8,8-3,3.17,1.92,6,7,2.43,10.16,5,11a30.89,30.89,0,0,0,14,0c4.52-1.28,10.28-5.46,9-9a32.7,32.7,0,0,0-6-11c-3.2-3.7-6.62-8.14-7-11s4.87-7.3,9-10,13-8,13-8,7.39,6.6,9,8,7.66,1.13,10,1,8.47-2.4,9-7-1.87-9.84-3-13-2.58-5.41-3-7,4.25-6,7-7,7.7-3,10-4,3,.15,6,5,5.75,8.59,8,12,3.15,7.46,7,7,11.14.07,13-4,3.92-7.32,4-11-5.67-21-7-25-3-5-3-5a23.55,23.55,0,0,1,7-2c3-.16,2.42-2.89,8,0s6.51,6.07,14,10,11.6,10.46,16,9,17.67-9,17-14,.31-11.32-6-16-5.33-7.19-16-11-18.76-11.56-29-12-17.27-.7-21,1-19.18,11.33-19,14-1.2,13.36-1,16a12.67,12.67,0,0,1-4,11,68.93,68.93,0,0,1-15,10c-6,3.11-8.32,5.12-12,5s-5.57,1.57-6,7-.17,11.83-4,13-7.39-.92-17,5-14.58,9.25-16,11-9.13,1.46-15,4-14.35,2.69-20,10-9,11-9,11,2.23,2.51-7,4-11.42,2.3-18,8-14,12-14,12,1.95,2.13-9,5-11.43.06-22,7-17.3,14.23-18,16-6.76,1.56-14,6-10,5-10,5l-1,6a11.74,11.74,0,0,0-8,0c-4.2,1.59-5.63.77-9,5S361,270,361,270Z"  fill-rule="evenodd"/>
  </g>
  <g id="top-middle"  style="isolation: isolate">
    <path d="M310,302s2.39,15.94,16,18,13.95,3.8,26,1,36.86-12.87,49-17,14.64-8.81,20-10,10.25-1.09,21-4,22.85-7.28,31-10a248.1,248.1,0,0,0,24-10c3.69-1.83.78.32,5-1s6.45-2.59,16-11,16-14.31,27-20,25.68-8.18,32-12,20.74-14.72,28-20,17.51-15.21,25-21,11.61-9.18,19-10,18.58-4.16,26-7,24.93-12.54,32-16,33.37-16.74,45-23,21-11,21-11,24.84,37.4,34,44,26.26,22.68,38,31,38.87,23.42,52,27,39.76,10.14,66,6c20.6-3.25,32.34-7.71,51.34-16.76,17.1-8.14,28.93-18,39.66-27.24s17.89-10.37,25-23,10.94-22.87,15-30,16.79-17.89,21-19,7.91-6.11,5-10-5.55-7.29-14-6-16.41,5.86-23,13-11.25,14.83-18,25-11,16.63-17,24-8.74,15-20,21-22.8,16.8-39,22-46,9.89-60,9-41.93-10.34-54-18-50.45-41.22-60-50-18.18-24.17-28-34-13.4-16.66-26-25-20.31-13.85-30-12-32.89,11.32-36,16c-.62.94,9,8,9,8s13.24,14,9,20-12.81,14.2-20,11-18.74-13-22-14-3.7-5-7-5-12,4-12,4,9.49,23.85,8,29,2,10.29-3,12-12.79,5.49-15,3a145.7,145.7,0,0,1-10-14,99.76,99.76,0,0,1-6-11s-18.19,7.13-20,12c-.91,2.44,7.45,12.11,7,17s-1.19,8.52-5,10c-4.14,1.61-8.46,1.15-13,0-2.78-.7-9-9-9-9s-20.83,13.2-23,15,.56,8.88,4,13,9.37,8.76,8,13,.31,8.65-7,9-14.27,1-16-3-3.21-6.4-5-10-1-6.35-8-4a111,111,0,0,0-14,6s4.89,8.22,3,14-4.16,10.24-10,10-9.26-2.06-14-5c-3.09-1.91-6.61-.52-10,1a53.54,53.54,0,0,0-8,5s.29,5.66,0,10,2.07,6.07,0,12-3.49,9.15-11,9-9.16-3.19-10-6-3.46-9.3-4-11a26.25,26.25,0,0,0-3-5s-15.88,5.13-19,7,.22,1.46,0,8,3,9.71-2,14-8.45,5.41-14,4-9.79-7.21-10-10-19.38,6.64-21,8-3,7.74-3,11,1.39,8,0,13-1.36,8.43-10,9-11.53-1.35-15-5-6.18-9.69-6-14,.1-6.45,4-6,5.89,1.69,11-3,8.33-8,11-7,8-.21,8-2-2-8-2-8l-36,16-2,8v2s-7.79,3.85-19,8-19.68,10-21,13S310,302,310,302Z"  fill-rule="evenodd"/>
  </g>
  <g id="sole"  style="isolation: isolate">
    <path d="M1140,394c2.67,0,3.33-1,6-1,8.26,13.32,4,49.79,4,70v17c0-.12.7,26.12-2,34-3.6,10.48-11.4,19.38-17,28-6.52,10-28,16.66-47,16-6,0-10,1-16,1-2.47.59-9.48,2.68-14,1l-3-3c-3.88-.77-6.63,5.56-13,3-2-.79-3.2-3.08-6-4-6.48,9.93-9.5,6.5-16,2-1.6-1.1-4.64,3.49-6,4-6.44,2.42-10.4-2.76-14-4-2.6,3.54-5.54,4.16-12,4a10.43,10.43,0,0,0-6-4c-7.85,7.42-12.45,6-20,2-2.25-1.18-1.25,4.74-8,5-8.85,0-7.3-4.52-12-5-5.82,7.89-12.3,4.81-18,0-3.57,4.81-6.41,4-12,4-6.64-6.48-5.91,1.39-20,0-3.4,0-3.56-3.64-8-4-5.82,7.89-11.57,4.48-18,0-2.6,3.54-7.54,4.16-14,4a10.43,10.43,0,0,0-6-4c-2.6,3.54-3.54,5.16-10,5-6.06-1.35-5.56-4.64-10-5-7.65,10-12.08,4.29-18,0-2.77-2-2,5.52-14,4a10.43,10.43,0,0,0-6-4c-2.89,2.86-4,5.94-14,5-7.39-9.42-7.43,2.94-18-1-3-1.12-2.92-3.49-8-4-2.6,3.54-3.93,5.69-12,4a10.43,10.43,0,0,0-6-4c-2.6,3.54-5.54,6.16-12,6-6.64-6.48-9.6-.41-20,0-2-2.67-3.56-5.64-8-6-2.4,3.93-3.61,7.77-12,4a10.43,10.43,0,0,0-6-4c-2.6,3.54-5.54,6.16-12,6-2-2.67-3.56-5.64-8-6-2.6,3.54-5.54,4.16-12,4a10.43,10.43,0,0,0-6-4c-2.6,3.54-5.54,6.16-12,6-2-2.67-3.56-5.64-8-6-2.6,3.54-5.54,6.16-12,6-1.57-2.1-3.16-5.11-6-6-2.6,3.54-5.54,5.16-12,5-10.12-9.38-9.17,3.22-20-1-2-.76-3.19-3.11-6-4-5.45,7.51-13.92,2.19-20,0-7.56,9.74-12.37-.8-20,1-2.59.61-4.77,4.55-10,3-1.42-.42-4.58-3.83-6-4-2.52-.3-2.61,5.55-14,4a10.43,10.43,0,0,0-6-4c-9.94,9.55-13.19-.84-20,0-3.36.41-5.76,5.86-12,4-2.09-.62-4.87-4.64-8-4l-1,2c-3.23,1.67-5.75,2-11,2a10.43,10.43,0,0,0-6-4c-6.46,6.56-12.79,2.14-20,0-5.25,6.83-11.66,2-18,1-6.25,5.12-13.1.39-20,1-3.66.32-9.21,3.62-14,1l-4-4c-4.69-1.4-4.58,7.75-12,5-1.51-.56-6-5.39-9-5l-3,3c-10.5,3.87-28.48,1.08-35,0-8.06-1.33-29,.22-38-2-11.91-2.94-19.33-1.61-29-4H188c-14.43-3.58-35.26-5.14-48.93-8.66-5.59-1.44-15.63-1.08-26.07-3.34,3.89,0-35.55-13.33-33-12-1-1.33-4-1.67-5-3-3-2.09-5.75-2-9-4-6.91-4.25-9.85-12.63-13-21-2-5.4-5-13.09-6-20,0-.38-1.73-18.51,2-30,0-3.33,1-6.67,1-10a67.54,67.54,0,0,1,17-31c7.81,1.95,13.93,7.73,21,11,7.88,3.65,19.39,4.92,31,7,6.3,1.13,20.26,5.77,28,7,33.33,5.28,60.12,7.55,95,11,25.81,1.48,70.89,5,112,5,31.33,0,61.67-2,93-2,21.87-.86,80.73-3.82,119-9,25.41-2.57,41.07-4.61,61-9,132.6-21.42,115.57-15.48,161-19,30-2.48,43.67-1.61,72-4,24.57-2.77,53.52-2,57-2,11.55,0,74.07-2.51,103-3,8-.14,17-1,28-2,8.67,0,16.33-1,25-1,13.16-3.25,29.22-2.7,43-5C1128.45,395.92,1127.69,395.72,1140,394Z"  fill-rule="evenodd"/>
  </g>
  <g id="nike"  style="isolation: isolate">
    <path d="M668,197s-44.93,24.22-60,45-20.78,34.34-19,49,3.75,40.34,29,50,48.35,12.67,82,8,89.26-20.51,106-26,281-87,281-87,2.2-2-8-5-15.42.2-24-4-16-8-16-8-74.8,18.65-94,23-163.58,34.66-180,37-47,5.07-59,1-23.73-10.91-29-22-6.87-15.33-6-25,1.19-26.36,2-31S668,197,668,197Z"  fill-rule="evenodd"/>
  </g>
  <g id="back-top"  style="isolation: isolate">
    <path d="M1116,110s-19.29,9.3-25,24c-4.31,11.07-12.29,27.08-22,34s-38.46,34.66-45,36,27.53,25.2,39,26,36.61,5.72,48,18,25.53,31,31,31,6.79.69,5-14-11.09-75.25-13-92-2.07-40.2-6-49S1116,110,1116,110Z"  fill-rule="evenodd"/>
  </g>
  <g id="front"  style="isolation: isolate">
    <path d="M73,415s-5.73,1.7,0-15,14-33.21,22-40,7.25-1.35,19,1,66.73,12.81,103,15,74.49,3.28,99,3,76.92,1.79,90-7,17.4-8.13,20-20,1.54-29.91-2-39a113.9,113.9,0,0,1-5-16s2-5.15,6-5,18.68-3,27-6,20.3-4.19,28-9,19-8,19-8a43.8,43.8,0,0,0,8,14c6.11,7.45,24.82,29.92,37,39s39.85,32.86,49,46,31,46.08,32,55,2,12,2,12-79.74,11.37-100,13-125.9,7.19-150,7-91.36-2.22-125-5-86.56-7.33-111-13-52.44-10.23-58-14A87.51,87.51,0,0,1,73,415Z"  fill-rule="evenodd"/>
  </g>
  <g id="front-top"  style="isolation: isolate">
    <path d="M309,304s-81.93,23.19-98,27-93.4,20.16-103,22-9,7-9,7,47.95,10.71,81,14c33.33,3.32,81.75,5.46,122,6s87.74,4.89,107-8,18-17.69,19-32-7-44-7-44-34.45,14.29-48,19-26.88,10.76-40,7S312.51,312.86,309,304Z" fill-rule="evenodd"/>
  </g>
  <g id="back-nike"  style="isolation: isolate">
    <path d="M773,118s-43.77,22.4-53,27-23,12-23,12,12,33.49,23,49,43.1,57,52,64,7,8,7,8,70.69-13.43,92-18,56-12.41,71-16,60.4-15.11,69-17,25-7,25-7,5.84,4.38,18,7,27.59,1.87,30,6-21.93,10-45,17c-28.1,8.54-100,31.24-121,38-18.63,6-54.71,17.28-69,21s-27,8-27,8,17.37,28.08,21,36,22.62,51.65,23,56,161.47-2.5,171-3,86.71-7.47,95-10a75.14,75.14,0,0,1,15-3s.64-15.48,1-29,.2-24.08,0-36,.37-14.51-1-26-1.59-19.05-4-22a143.61,143.61,0,0,0-13-14c-8.1-7.94-11.5-14.16-21-20-3.61-2.22-12.82-9.31-19-12-10.1-4.4-18.42-4.33-28-6-15.44-2.69-21.56-5.47-27-12a82.38,82.38,0,0,0-13-12s-7.09,4.84-21,10-30.36,11.4-41,12-19.89,2.4-33,0-33.45-6.46-48-14-30.2-15.75-43-26-23.94-19.18-33-29-12.25-18-18-25S773,118,773,118Z"  fill-rule="evenodd"/>
  </g>
  <g id="tip"  style="isolation: isolate">
    <path d="M657,73s22.63-33.3,33-43S709.32,5.62,717,6s19.63,2.54,28,9,38.93,26,45,34,20.31,23.88,19,41-7,36-7,36-20.81-26.29-27-32-20.39-19-29-22-14.55-2.88-26,1-17.8,6.89-20,9a30,30,0,0,0-4,5s-7.52-3.77-16-8S658.47,73,657,73Z" fill-rule="evenodd"/>
  </g>
  <g id="middle-nike"  style="isolation: isolate">
    <path d="M697,157s-25.06,13.9-39,16-20.44,5.1-28,11-12.46,11.57-25,21-23.33,19.83-35,23a109.3,109.3,0,0,0-33,15c-9.4,6.57-23.93,19.81-29,23a30.32,30.32,0,0,1-9,4,102.09,102.09,0,0,0,13,20c8.77,10.71,25.38,27.55,36,35s19.2,16.75,29,26,21.26,23.2,27,33,13.32,21,18,34c4.16,11.6,4,16,4,16s24.57-3.61,37-6,32.29-4.35,49-6,37.29-5.15,50-5,57-3.65,70-4c18.07-.48,36-3,36-3s-11.08-24.16-16-37a244.83,244.83,0,0,0-19-38c-4.25-6.83-11-18-11-18s-33.55,10.92-48,15-39.93,11.37-56,14-40.47,5.41-60,3-31.52-4-43-10-16.57-9.93-21-25-4.78-20.05-4-31,1.12-14.64,9-27,10-16.42,20-25,14.75-13.11,24-19,10.22-7,17-11,6.9-5.3,11-4,.94,1.85,1,7-.8,12.47-1,21-2.16,11.35,0,18,1.56,6,5,13c3.53,7.21,4.21,10.27,13,16s10.68,7.28,19,9,18.16,2.59,25,2,19.9-1.54,29-3,17-3,17-3-8-9.25-17-18-21-25.11-25-31-19.14-26.59-23-33-9-18.33-11-23S697,157,697,157Z"  fill-rule="evenodd"/>
  </g>
  <g id="shadow_Image" data-name="shadow Image">
    <image id="shadow_Image-2" data-name="shadow Image" width="1200" height="576" xlink:href="assets/shoe1.png"/>
  </g>
</svg>
